<?xml version="1.0" encoding="utf-8"?>
<!-- Generator: Adobe Illustrator 16.2.1, SVG Export Plug-In . SVG Version: 6.00 Build 0)  -->
<!DOCTYPE svg PUBLIC "-//W3C//DTD SVG 1.1//EN" "http://www.w3.org/Graphics/SVG/1.1/DTD/svg11.dtd">
<svg version="1.1" id="Layer_1" xmlns="http://www.w3.org/2000/svg" xmlns:xlink="http://www.w3.org/1999/xlink" x="0px" y="0px"
	 width="169.775px" height="170.409px" viewBox="0 0 169.775 170.409" enable-background="new 0 0 169.775 170.409"
	 xml:space="preserve">
<path fill="#FDFDFE" d="M86.444,158.335c40.389,0,73.128-32.748,73.128-73.133c0-40.386-32.739-73.129-73.128-73.129
	c-40.394,0-73.129,32.743-73.129,73.129C13.315,125.587,46.051,158.335,86.444,158.335"/>
<path display="none" fill="#5F6364" d="M113.23,39.811H56.545c-9.848,0-17.859,8.001-17.859,17.849v18.868v37.83
	c0,9.846,8.012,17.857,17.859,17.857h56.686c9.848,0,17.859-8.012,17.859-17.857v-37.83V57.659
	C131.09,47.812,123.078,39.811,113.23,39.811z M118.356,50.454l2.043-0.011v2.038v13.636l-15.615,0.043l-0.053-15.663
	L118.356,50.454z M71.703,76.527c2.955-4.097,7.757-6.781,13.185-6.781s10.229,2.685,13.185,6.781
	c1.932,2.674,3.083,5.941,3.083,9.486c0,8.967-7.301,16.256-16.268,16.256S68.626,94.98,68.626,86.013
	C68.626,82.468,69.777,79.201,71.703,76.527z M122.086,114.357c0,4.881-3.969,8.85-8.855,8.85H56.545
	c-4.887,0-8.855-3.969-8.855-8.85v-37.83h13.795c-1.194,2.928-1.862,6.133-1.862,9.486c0,13.922,11.333,25.266,25.266,25.266
	s25.266-11.344,25.266-25.266c0-3.354-0.674-6.559-1.862-9.486h13.795V114.357z"/>
<path display="none" fill="#5F6364" d="M60.927,122.592H43.436V66.639h17.491V122.592z M51.732,59.639h-0.123
	c-6.33,0-10.435-4.281-10.435-9.699c0-5.521,4.228-9.713,10.682-9.713c6.448,0,10.414,4.182,10.544,9.703
	C62.4,55.349,58.305,59.639,51.732,59.639z M130.874,122.592h-19.823V93.637c0-7.582-3.096-12.753-9.92-12.753
	c-5.218,0-8.118,3.491-9.466,6.86c-0.506,1.205-0.428,2.885-0.428,4.573v30.274h-19.64c0,0,0.253-51.287,0-55.953h19.64v8.781
	c1.158-3.837,7.432-9.317,17.454-9.317c12.422,0,22.183,8.044,22.183,25.375V122.592z"/>
<g>
	<path fill-rule="evenodd" clip-rule="evenodd" fill="#5F6364" d="M86.444,17.22c-37.289,0-67.524,30.211-67.524,67.482
		c0,29.814,19.347,55.111,46.177,64.034c3.373,0.623,4.615-1.465,4.615-3.247c0-1.607-0.065-6.924-0.094-12.562
		c-18.786,4.081-22.749-7.963-22.749-7.963c-3.071-7.8-7.498-9.874-7.498-9.874c-6.126-4.188,0.464-4.103,0.464-4.103
		c6.779,0.476,10.349,6.954,10.349,6.954c6.023,10.316,15.796,7.334,19.65,5.61c0.606-4.361,2.355-7.339,4.288-9.023
		c-15-1.707-30.765-7.493-30.765-33.351c0-7.368,2.64-13.387,6.958-18.113c-0.701-1.7-3.015-8.564,0.652-17.86
		c0,0,5.673-1.812,18.575,6.919c5.385-1.496,11.162-2.246,16.9-2.272c5.737,0.027,11.519,0.777,16.914,2.272
		c12.89-8.731,18.551-6.919,18.551-6.919c3.676,9.296,1.365,16.16,0.663,17.86c4.329,4.727,6.95,10.745,6.95,18.113
		c0,25.919-15.796,31.625-30.833,33.296c2.422,2.095,4.579,6.2,4.579,12.496c0,9.03-0.076,16.297-0.076,18.52
		c0,1.797,1.215,3.9,4.637,3.239c26.814-8.934,46.138-34.222,46.138-64.026C153.967,47.432,123.736,17.22,86.444,17.22z"/>
	<path fill="#5F6364" d="M44.496,114.11c-0.148,0.336-0.678,0.437-1.157,0.206c-0.492-0.22-0.765-0.677-0.607-1.014
		c0.146-0.345,0.675-0.441,1.164-0.211C44.385,113.312,44.664,113.774,44.496,114.11L44.496,114.11z M43.664,113.495"/>
	<path fill="#5F6364" d="M47.229,117.159c-0.32,0.298-0.951,0.16-1.378-0.312c-0.441-0.47-0.522-1.099-0.198-1.401
		c0.332-0.299,0.944-0.159,1.385,0.312C47.482,116.232,47.566,116.857,47.229,117.159L47.229,117.159z M46.586,116.467"/>
	<path fill="#5F6364" d="M49.893,121.044c-0.413,0.289-1.089,0.021-1.509-0.581c-0.413-0.601-0.413-1.321,0.011-1.607
		c0.417-0.288,1.085-0.029,1.509,0.565C50.316,120.032,50.316,120.751,49.893,121.044L49.893,121.044z M49.893,121.044"/>
	<path fill="#5F6364" d="M53.54,124.8c-0.37,0.407-1.158,0.298-1.734-0.258c-0.592-0.545-0.755-1.317-0.385-1.726
		c0.376-0.407,1.168-0.293,1.749,0.259C53.757,123.621,53.936,124.397,53.54,124.8L53.54,124.8z M53.54,124.8"/>
	<path fill="#5F6364" d="M58.571,126.981c-0.163,0.526-0.922,0.769-1.686,0.543c-0.765-0.231-1.266-0.849-1.109-1.384
		c0.157-0.532,0.921-0.782,1.689-0.541C58.23,125.829,58.732,126.443,58.571,126.981L58.571,126.981z M58.571,126.981"/>
	<path fill="#5F6364" d="M64.099,127.385c0.018,0.556-0.63,1.018-1.433,1.026c-0.808,0.019-1.461-0.432-1.47-0.979
		c0-0.562,0.634-1.019,1.441-1.033C63.439,126.384,64.099,126.833,64.099,127.385L64.099,127.385z M64.099,127.385"/>
	<path fill="#5F6364" d="M69.239,126.51c0.098,0.543-0.46,1.1-1.258,1.249c-0.783,0.145-1.509-0.192-1.608-0.73
		c-0.099-0.557,0.469-1.115,1.253-1.258C68.423,125.632,69.14,125.958,69.239,126.51L69.239,126.51z M69.239,126.51"/>
</g>
</svg>
