<?xml version="1.0" encoding="utf-8"?>
<!-- Generator: Adobe Illustrator 16.2.1, SVG Export Plug-In . SVG Version: 6.00 Build 0)  -->
<!DOCTYPE svg PUBLIC "-//W3C//DTD SVG 1.1//EN" "http://www.w3.org/Graphics/SVG/1.1/DTD/svg11.dtd">
<svg version="1.1" id="Layer_1" xmlns="http://www.w3.org/2000/svg" xmlns:xlink="http://www.w3.org/1999/xlink" x="0px" y="0px"
	 width="169.775px" height="170.409px" viewBox="0 0 169.775 170.409" enable-background="new 0 0 169.775 170.409"
	 xml:space="preserve">
<path fill="#FDFDFE" d="M84.888,157.144c40.389,0,73.128-32.748,73.128-73.133c0-40.386-32.739-73.129-73.128-73.129
	c-40.394,0-73.129,32.743-73.129,73.129C11.759,124.396,44.494,157.144,84.888,157.144"/>
<path display="none" fill="#FFFFFF" d="M113.23,39.811H56.545c-9.848,0-17.859,8.001-17.859,17.849v18.868v37.83
	c0,9.846,8.012,17.857,17.859,17.857h56.686c9.848,0,17.859-8.012,17.859-17.857v-37.83V57.659
	C131.09,47.812,123.078,39.811,113.23,39.811z M118.356,50.454l2.043-0.011v2.038v13.636l-15.615,0.043l-0.053-15.663
	L118.356,50.454z M71.703,76.527c2.955-4.097,7.757-6.781,13.185-6.781s10.229,2.685,13.185,6.781
	c1.932,2.674,3.083,5.941,3.083,9.486c0,8.967-7.301,16.256-16.268,16.256S68.626,94.98,68.626,86.013
	C68.626,82.468,69.777,79.201,71.703,76.527z M122.086,114.357c0,4.881-3.969,8.85-8.855,8.85H56.545
	c-4.887,0-8.855-3.969-8.855-8.85v-37.83h13.795c-1.194,2.928-1.862,6.133-1.862,9.486c0,13.922,11.333,25.266,25.266,25.266
	s25.266-11.344,25.266-25.266c0-3.354-0.674-6.559-1.862-9.486h13.795V114.357z"/>
<path fill="#5F6364" d="M60.927,122.592H43.436V66.639h17.491V122.592z M51.732,59.639h-0.123c-6.33,0-10.435-4.281-10.435-9.699
	c0-5.521,4.228-9.713,10.682-9.713c6.448,0,10.414,4.182,10.544,9.703C62.4,55.349,58.305,59.639,51.732,59.639z M130.874,122.592
	h-19.823V93.637c0-7.582-3.096-12.753-9.92-12.753c-5.218,0-8.118,3.491-9.466,6.86c-0.506,1.205-0.428,2.885-0.428,4.573v30.274
	h-19.64c0,0,0.253-51.287,0-55.953h19.64v8.781c1.158-3.837,7.432-9.317,17.454-9.317c12.422,0,22.183,8.044,22.183,25.375V122.592z
	"/>
</svg>
